<?xml version='1.0' encoding='utf-8'?>
<svg xmlns="http://www.w3.org/2000/svg" height="900" width="862">
	<path d="M671,437 L672,437 Z" fill="#4287f5" />
	<path d="M676,436 L675,437 L674,437 L675,437 Z" fill="#4287f5" />
	<path d="M387,1 L386,2 L383,2 L382,3 L379,3 L378,4 L376,4 L375,5 L374,5 L373,6 L372,6 L371,7 L370,7 L369,8 L368,8 L367,9 L366,9 L365,10 L364,10 L362,12 L361,12 L359,14 L358,14 L355,17 L354,17 L354,18 L353,19 L352,19 L351,20 L351,21 L350,22 L349,22 L348,23 L342,23 L341,24 L336,24 L335,25 L331,25 L330,26 L328,26 L325,23 L325,22 L324,21 L324,20 L319,15 L318,15 L317,14 L316,14 L315,13 L310,13 L309,14 L308,14 L307,15 L306,15 L302,19 L302,20 L300,22 L300,23 L298,25 L298,26 L296,28 L296,29 L295,30 L295,31 L294,32 L294,33 L293,34 L293,35 L291,37 L290,37 L289,38 L287,38 L286,39 L284,39 L283,40 L282,40 L281,41 L279,41 L278,42 L277,42 L276,43 L274,43 L273,44 L272,44 L271,45 L269,45 L268,46 L267,46 L266,47 L265,47 L264,48 L263,48 L262,49 L261,49 L260,50 L259,50 L258,51 L257,51 L255,53 L253,53 L251,55 L250,55 L249,56 L248,56 L246,58 L245,58 L243,60 L242,60 L240,62 L239,62 L237,64 L236,64 L233,67 L232,67 L230,69 L229,69 L225,73 L224,73 L222,75 L221,75 L215,81 L214,81 L203,92 L202,92 L179,115 L179,116 L173,122 L173,123 L169,127 L169,128 L166,131 L166,132 L163,135 L163,136 L161,138 L161,139 L158,142 L158,143 L157,144 L157,145 L155,147 L155,148 L153,150 L153,151 L152,152 L152,153 L151,154 L151,155 L150,156 L150,157 L149,158 L149,159 L147,161 L147,162 L146,163 L146,164 L145,165 L145,166 L144,167 L144,168 L142,170 L142,171 L141,172 L141,173 L140,174 L140,175 L139,176 L139,177 L138,178 L138,180 L136,182 L136,184 L135,185 L135,186 L134,187 L134,188 L133,189 L133,191 L132,192 L132,193 L131,194 L131,195 L130,196 L130,197 L129,198 L129,201 L128,202 L128,203 L127,204 L127,206 L126,207 L126,208 L125,209 L125,211 L124,212 L124,213 L123,214 L123,216 L122,217 L122,219 L121,220 L121,222 L120,223 L120,225 L119,226 L119,228 L118,229 L118,231 L117,232 L117,234 L116,235 L116,238 L115,239 L115,241 L114,242 L114,245 L113,246 L113,249 L112,250 L112,254 L111,255 L111,257 L110,258 L110,262 L109,263 L109,265 L108,266 L108,269 L107,270 L107,273 L106,274 L106,276 L105,277 L105,281 L104,282 L104,285 L103,286 L103,291 L102,292 L102,295 L101,296 L101,302 L100,303 L100,308 L99,309 L99,315 L98,316 L98,322 L97,323 L97,347 L96,348 L97,349 L97,366 L98,367 L98,373 L99,374 L99,382 L100,383 L100,388 L101,389 L101,396 L102,397 L102,399 L103,400 L103,403 L104,404 L104,406 L105,407 L105,410 L106,411 L106,412 L107,413 L107,415 L108,416 L108,418 L107,419 L106,419 L103,422 L102,422 L100,424 L98,424 L97,425 L96,425 L95,426 L93,426 L92,427 L91,426 L90,427 L87,427 L94,427 L95,426 L98,426 L99,425 L101,425 L102,424 L103,424 L104,423 L105,423 L106,422 L107,422 L108,421 L109,421 L110,422 L110,423 L111,424 L111,425 L112,426 L112,428 L113,429 L113,430 L111,432 L109,432 L108,433 L106,433 L105,434 L101,434 L100,435 L96,435 L95,434 L90,434 L89,433 L86,433 L85,432 L83,432 L82,431 L81,431 L80,430 L81,431 L82,431 L83,432 L84,432 L85,433 L86,433 L87,434 L89,434 L90,435 L93,435 L94,436 L103,436 L104,435 L107,435 L108,434 L110,434 L111,433 L112,433 L113,432 L114,432 L115,433 L115,434 L116,435 L116,436 L118,438 L118,439 L119,440 L119,441 L120,442 L118,444 L118,445 L114,449 L114,450 L113,451 L112,451 L106,457 L105,457 L103,459 L102,459 L101,460 L100,460 L99,461 L97,461 L96,462 L94,462 L93,463 L86,463 L85,464 L84,464 L83,463 L82,464 L80,464 L92,464 L93,463 L96,463 L97,462 L101,462 L102,461 L103,461 L104,460 L106,460 L107,459 L109,459 L111,457 L113,457 L115,455 L116,455 L117,454 L118,454 L121,451 L122,451 L123,450 L125,450 L128,453 L128,454 L136,462 L136,464 L135,465 L135,466 L133,468 L133,469 L130,472 L130,473 L125,478 L125,479 L120,484 L119,484 L114,489 L113,489 L110,492 L109,492 L107,494 L106,494 L105,495 L104,495 L102,497 L100,497 L99,498 L98,498 L97,499 L94,499 L93,500 L90,500 L89,501 L82,501 L81,500 L79,500 L78,499 L77,499 L76,498 L75,498 L74,497 L73,497 L72,496 L72,497 L73,498 L74,498 L75,499 L76,499 L77,500 L78,500 L79,501 L82,501 L83,502 L89,502 L90,503 L91,502 L97,502 L98,501 L102,501 L103,500 L106,500 L107,499 L109,499 L110,498 L111,498 L112,497 L114,497 L115,496 L116,496 L117,495 L118,495 L119,494 L120,494 L121,493 L122,493 L124,491 L125,491 L126,490 L127,490 L128,489 L136,489 L137,488 L141,488 L142,487 L145,487 L146,486 L148,486 L149,485 L150,485 L151,484 L152,484 L153,483 L154,483 L157,480 L158,480 L160,478 L161,478 L162,479 L162,484 L161,485 L161,488 L160,489 L160,494 L159,495 L159,497 L152,504 L151,504 L151,505 L149,507 L148,507 L146,509 L145,509 L144,510 L143,510 L142,511 L141,511 L140,512 L135,512 L135,513 L138,513 L139,512 L142,512 L143,511 L144,511 L145,510 L146,510 L147,509 L148,509 L149,508 L150,508 L151,507 L152,507 L154,505 L155,505 L156,504 L157,504 L158,505 L157,506 L157,509 L156,510 L156,513 L155,514 L155,518 L154,519 L154,522 L153,523 L153,527 L152,528 L152,530 L151,531 L151,534 L150,535 L150,537 L149,538 L149,541 L148,542 L148,544 L147,545 L147,547 L146,548 L146,550 L145,551 L145,553 L144,554 L144,556 L143,557 L143,559 L142,560 L142,562 L141,563 L141,565 L140,566 L140,567 L139,568 L139,570 L138,571 L138,573 L137,574 L137,575 L136,576 L136,578 L135,579 L135,580 L134,581 L134,583 L133,584 L133,586 L132,587 L132,588 L131,589 L131,591 L130,592 L130,593 L129,594 L129,596 L128,597 L128,598 L127,599 L127,600 L126,601 L126,602 L125,603 L125,605 L124,606 L124,607 L123,608 L123,609 L122,610 L122,612 L121,613 L121,614 L120,615 L120,616 L119,617 L119,618 L118,619 L118,620 L117,621 L117,622 L116,623 L116,624 L115,625 L115,626 L114,627 L114,628 L113,629 L113,630 L112,631 L112,633 L110,635 L110,637 L109,638 L109,639 L108,640 L108,641 L107,642 L107,643 L106,644 L106,645 L105,646 L105,647 L104,648 L104,649 L103,650 L103,652 L102,653 L102,654 L101,655 L101,656 L100,657 L100,658 L99,659 L99,660 L98,661 L98,662 L97,663 L97,664 L96,665 L96,666 L95,667 L95,668 L94,669 L94,670 L93,671 L93,673 L92,674 L92,675 L90,677 L90,679 L89,680 L89,681 L88,682 L88,683 L87,684 L87,685 L86,686 L86,687 L84,689 L84,691 L83,692 L83,693 L82,694 L82,695 L81,696 L81,697 L80,698 L80,699 L79,700 L79,701 L78,702 L78,703 L77,704 L77,705 L76,706 L76,707 L75,708 L75,709 L74,710 L74,711 L73,712 L73,713 L72,714 L72,715 L71,716 L71,717 L70,718 L70,719 L69,720 L69,721 L68,722 L68,723 L67,724 L67,725 L66,726 L66,727 L65,728 L65,729 L64,730 L64,731 L63,732 L63,733 L62,734 L62,735 L61,736 L61,737 L60,738 L60,739 L59,740 L59,741 L58,742 L58,744 L57,745 L57,746 L56,747 L56,749 L55,750 L55,751 L54,752 L54,753 L53,754 L53,755 L52,756 L52,757 L51,758 L51,759 L50,760 L50,761 L49,762 L49,763 L48,764 L48,766 L47,767 L47,768 L46,769 L46,770 L45,771 L45,773 L44,774 L44,775 L43,776 L43,777 L42,778 L42,780 L41,781 L41,782 L40,783 L40,784 L39,785 L39,787 L38,788 L38,789 L37,790 L37,791 L36,792 L36,794 L35,795 L35,796 L34,797 L34,798 L33,799 L33,801 L32,802 L32,803 L31,804 L31,805 L30,806 L30,808 L29,809 L29,811 L28,812 L28,813 L27,814 L27,816 L26,817 L26,819 L25,820 L25,821 L24,822 L24,824 L23,825 L23,827 L22,828 L22,830 L21,831 L21,833 L20,834 L20,835 L19,836 L19,839 L18,840 L18,841 L17,842 L17,845 L16,846 L16,848 L15,849 L15,851 L14,852 L14,854 L13,855 L13,858 L12,859 L12,861 L11,862 L11,865 L10,866 L10,869 L9,870 L9,873 L8,874 L8,879 L7,880 L7,883 L6,884 L6,889 L5,890 L5,893 L4,894 L4,900 L3,901 L3,906 L2,907 L2,916 L1,917 L1,951 L2,952 L2,958 L3,959 L3,963 L4,964 L4,968 L5,969 L5,972 L6,973 L6,976 L7,977 L7,980 L8,981 L8,983 L9,984 L9,985 L10,986 L10,988 L11,989 L11,990 L12,991 L12,992 L13,993 L13,997 L12,998 L12,1001 L11,1002 L11,1006 L10,1007 L10,1014 L9,1015 L9,1021 L8,1022 L8,1038 L7,1039 L7,1048 L8,1049 L8,1069 L9,1070 L9,1075 L10,1076 L10,1081 L11,1082 L11,1084 L12,1085 L12,1088 L13,1089 L13,1092 L14,1093 L14,1095 L15,1096 L15,1098 L16,1099 L16,1100 L17,1101 L17,1102 L18,1103 L18,1104 L19,1105 L19,1106 L20,1107 L20,1108 L21,1109 L21,1110 L23,1112 L23,1113 L25,1115 L25,1116 L34,1125 L35,1125 L36,1126 L37,1126 L38,1127 L39,1127 L40,1128 L41,1128 L42,1129 L44,1129 L45,1130 L46,1130 L46,1129 L45,1129 L44,1128 L42,1128 L35,1121 L35,1120 L33,1118 L33,1117 L32,1116 L32,1115 L31,1114 L31,1113 L30,1112 L30,1111 L29,1110 L29,1108 L28,1107 L28,1105 L27,1104 L27,1103 L26,1102 L26,1098 L25,1097 L25,1095 L24,1094 L24,1088 L23,1087 L23,1080 L22,1079 L22,1073 L21,1072 L21,1063 L20,1062 L20,1043 L21,1042 L21,1032 L22,1031 L22,1024 L23,1023 L23,1021 L24,1020 L24,1016 L25,1015 L26,1016 L26,1033 L27,1034 L27,1042 L28,1043 L28,1049 L29,1050 L29,1054 L30,1055 L30,1059 L31,1060 L31,1063 L32,1064 L32,1068 L33,1069 L33,1070 L34,1071 L34,1073 L35,1074 L35,1076 L36,1077 L36,1079 L37,1080 L37,1082 L38,1083 L38,1084 L39,1085 L39,1087 L40,1088 L40,1089 L41,1090 L41,1092 L42,1093 L42,1094 L43,1095 L43,1096 L44,1097 L44,1098 L45,1099 L45,1100 L46,1101 L46,1102 L47,1103 L47,1104 L48,1105 L48,1106 L49,1107 L49,1108 L51,1110 L51,1111 L52,1112 L52,1113 L53,1114 L53,1115 L55,1117 L55,1118 L57,1120 L57,1121 L60,1124 L60,1125 L62,1127 L62,1128 L67,1133 L67,1134 L78,1145 L79,1145 L81,1147 L82,1147 L84,1149 L85,1149 L86,1150 L87,1150 L88,1151 L89,1151 L90,1152 L91,1152 L92,1153 L97,1153 L98,1154 L99,1154 L100,1153 L107,1153 L108,1152 L109,1152 L100,1152 L99,1151 L97,1151 L96,1150 L95,1150 L94,1149 L93,1149 L83,1139 L83,1138 L80,1135 L80,1134 L79,1133 L79,1132 L77,1130 L77,1129 L76,1128 L76,1127 L75,1126 L75,1125 L74,1124 L74,1123 L73,1122 L73,1121 L72,1120 L72,1118 L71,1117 L71,1116 L70,1115 L70,1114 L69,1113 L69,1111 L68,1110 L68,1107 L67,1106 L67,1103 L66,1102 L66,1100 L65,1099 L65,1096 L64,1095 L64,1092 L63,1091 L63,1086 L62,1085 L62,1079 L61,1078 L61,1068 L60,1067 L60,1055 L59,1054 L60,1053 L60,1038 L61,1037 L62,1038 L63,1038 L62,1037 L61,1037 L60,1036 L60,1031 L61,1030 L61,1020 L62,1019 L62,1014 L63,1013 L63,1006 L64,1005 L64,1000 L65,999 L65,996 L66,995 L66,989 L67,988 L67,987 L68,986 L67,985 L68,984 L68,982 L69,981 L69,977 L70,976 L70,973 L71,972 L71,970 L72,969 L72,966 L73,965 L73,963 L74,962 L74,960 L75,959 L75,957 L76,956 L76,953 L77,952 L77,950 L78,949 L78,947 L79,946 L79,945 L80,944 L80,942 L81,941 L81,940 L82,939 L82,937 L83,936 L83,935 L84,934 L84,932 L85,931 L85,930 L86,929 L86,928 L87,927 L87,925 L89,923 L89,922 L90,921 L90,919 L91,918 L91,917 L92,916 L93,916 L94,917 L94,961 L95,962 L95,963 L94,964 L94,965 L95,966 L94,967 L95,968 L95,1011 L96,1012 L96,1037 L97,1038 L97,1056 L98,1057 L98,1066 L99,1067 L99,1077 L100,1078 L100,1082 L101,1083 L101,1088 L102,1089 L102,1092 L103,1093 L103,1094 L104,1095 L104,1096 L106,1098 L106,1099 L107,1100 L107,1101 L109,1103 L109,1104 L110,1105 L110,1106 L112,1108 L112,1109 L113,1110 L113,1111 L115,1113 L115,1114 L116,1115 L116,1116 L118,1118 L118,1119 L119,1120 L119,1121 L121,1123 L121,1124 L122,1125 L122,1126 L124,1128 L124,1129 L125,1130 L125,1132 L126,1133 L126,1134 L127,1135 L127,1136 L128,1137 L128,1138 L129,1139 L129,1141 L130,1142 L130,1143 L131,1144 L131,1145 L132,1146 L132,1148 L133,1149 L133,1150 L134,1151 L134,1152 L135,1153 L135,1154 L136,1155 L136,1156 L138,1158 L138,1159 L139,1160 L139,1161 L141,1163 L141,1164 L143,1166 L143,1167 L145,1169 L145,1170 L148,1173 L148,1174 L150,1176 L150,1180 L149,1181 L149,1192 L148,1193 L148,1200 L147,1201 L147,1209 L146,1210 L146,1216 L145,1217 L145,1225 L144,1226 L144,1232 L143,1233 L143,1238 L142,1239 L142,1246 L141,1247 L141,1251 L140,1252 L140,1258 L139,1259 L139,1263 L138,1264 L138,1269 L137,1270 L137,1272 L136,1273 L136,1276 L135,1277 L135,1281 L134,1282 L134,1285 L133,1286 L133,1288 L132,1289 L132,1291 L131,1292 L131,1294 L130,1295 L130,1297 L129,1298 L129,1300 L128,1301 L128,1303 L127,1304 L127,1305 L126,1306 L126,1307 L125,1308 L125,1310 L124,1311 L124,1312 L123,1313 L123,1314 L122,1315 L122,1316 L121,1317 L121,1318 L120,1319 L120,1321 L119,1322 L119,1323 L118,1324 L118,1325 L117,1326 L117,1327 L116,1328 L116,1329 L115,1330 L115,1332 L114,1333 L114,1334 L113,1335 L113,1336 L112,1337 L112,1338 L111,1339 L111,1340 L110,1341 L110,1342 L109,1343 L109,1345 L108,1346 L108,1347 L107,1348 L107,1349 L106,1350 L106,1351 L105,1352 L105,1354 L104,1355 L104,1356 L103,1357 L103,1358 L102,1359 L102,1361 L101,1362 L101,1363 L100,1364 L100,1365 L99,1366 L99,1368 L98,1369 L98,1370 L97,1371 L97,1373 L96,1374 L96,1375 L95,1376 L95,1377 L94,1378 L94,1380 L93,1381 L93,1382 L92,1383 L92,1384 L91,1385 L91,1387 L90,1388 L90,1389 L89,1390 L89,1392 L88,1393 L88,1394 L87,1395 L87,1397 L86,1398 L86,1399 L85,1400 L85,1401 L84,1402 L84,1404 L83,1405 L83,1406 L82,1407 L82,1408 L81,1409 L81,1411 L80,1412 L80,1413 L79,1414 L79,1416 L78,1417 L78,1418 L77,1419 L77,1420 L76,1421 L76,1423 L75,1424 L75,1426 L74,1427 L74,1428 L73,1429 L73,1430 L72,1431 L72,1433 L71,1434 L71,1435 L70,1436 L70,1438 L69,1439 L69,1440 L68,1441 L68,1443 L67,1444 L67,1445 L66,1446 L66,1448 L65,1449 L65,1450 L64,1451 L64,1453 L63,1454 L63,1455 L62,1456 L62,1458 L61,1459 L61,1460 L60,1461 L60,1463 L59,1464 L59,1466 L58,1467 L58,1469 L57,1470 L57,1471 L56,1472 L56,1474 L55,1475 L55,1477 L54,1478 L54,1480 L53,1481 L53,1482 L52,1483 L52,1485 L51,1486 L51,1487 L872,1487 L872,1485 L871,1484 L871,1482 L870,1481 L870,1480 L869,1479 L869,1476 L868,1475 L868,1474 L867,1473 L867,1471 L866,1470 L866,1468 L865,1467 L865,1464 L864,1463 L864,1461 L863,1460 L863,1458 L862,1457 L862,1454 L861,1453 L861,1450 L860,1449 L860,1446 L859,1445 L859,1443 L858,1442 L858,1441 L857,1440 L857,1439 L856,1438 L856,1437 L855,1436 L855,1435 L853,1433 L853,1432 L852,1431 L852,1430 L845,1423 L843,1423 L841,1421 L840,1421 L839,1420 L837,1420 L836,1419 L818,1419 L817,1418 L817,1415 L816,1414 L816,1412 L815,1411 L815,1406 L814,1405 L814,1402 L815,1401 L815,1396 L816,1395 L816,1393 L820,1389 L821,1389 L821,1386 L820,1385 L820,1380 L819,1379 L819,1378 L818,1377 L818,1376 L817,1375 L815,1375 L813,1373 L813,1370 L812,1369 L812,1368 L811,1367 L811,1363 L810,1362 L810,1360 L809,1359 L809,1355 L808,1354 L808,1351 L807,1350 L807,1349 L808,1348 L816,1356 L816,1357 L828,1369 L829,1369 L830,1370 L830,1371 L831,1371 L840,1380 L841,1380 L844,1383 L846,1383 L847,1384 L850,1384 L851,1385 L861,1385 L862,1384 L864,1384 L865,1383 L865,1377 L864,1376 L863,1376 L860,1373 L859,1373 L855,1369 L854,1369 L848,1363 L847,1363 L841,1357 L840,1357 L823,1340 L823,1339 L819,1335 L819,1334 L818,1334 L817,1333 L817,1332 L813,1328 L813,1327 L808,1322 L808,1321 L805,1318 L805,1317 L803,1315 L803,1314 L801,1312 L801,1311 L798,1308 L798,1307 L796,1305 L796,1304 L798,1302 L798,1299 L797,1298 L797,1295 L796,1294 L796,1289 L795,1288 L795,1285 L794,1284 L794,1281 L793,1280 L793,1277 L792,1276 L792,1273 L791,1272 L791,1269 L790,1268 L790,1267 L789,1266 L789,1264 L788,1263 L788,1262 L785,1262 L784,1261 L784,1260 L783,1259 L783,1255 L782,1254 L782,1252 L781,1251 L781,1248 L780,1247 L780,1244 L779,1243 L779,1239 L778,1238 L778,1236 L777,1235 L777,1231 L776,1230 L776,1228 L775,1227 L775,1225 L774,1224 L774,1220 L773,1219 L773,1216 L772,1215 L772,1212 L771,1211 L771,1208 L770,1207 L770,1205 L769,1204 L769,1201 L768,1200 L768,1197 L767,1196 L767,1193 L766,1192 L766,1188 L765,1187 L765,1184 L764,1183 L764,1180 L763,1179 L763,1177 L762,1176 L762,1172 L761,1171 L761,1169 L760,1168 L760,1166 L759,1165 L759,1160 L758,1159 L758,1157 L757,1156 L757,1152 L756,1151 L756,1149 L755,1148 L755,1145 L754,1144 L754,1141 L753,1140 L753,1136 L752,1135 L752,1132 L751,1131 L751,1129 L750,1128 L750,1124 L749,1123 L749,1120 L748,1119 L748,1117 L747,1116 L747,1113 L746,1112 L746,1109 L747,1108 L747,1107 L754,1100 L754,1099 L755,1098 L755,1097 L756,1096 L756,1095 L757,1094 L757,1093 L758,1092 L758,1091 L759,1090 L759,1089 L760,1088 L760,1087 L761,1086 L761,1084 L762,1083 L762,1082 L763,1081 L763,1079 L764,1078 L764,1077 L765,1076 L765,1075 L766,1074 L766,1072 L767,1071 L767,1070 L768,1069 L770,1069 L771,1070 L770,1071 L770,1080 L771,1081 L770,1082 L770,1083 L769,1084 L769,1085 L767,1087 L767,1088 L765,1090 L765,1092 L764,1093 L764,1096 L763,1097 L763,1101 L764,1102 L764,1104 L767,1107 L769,1107 L771,1105 L772,1105 L772,1104 L774,1102 L774,1101 L779,1096 L779,1095 L785,1089 L785,1088 L786,1087 L786,1085 L787,1084 L787,1068 L788,1067 L788,1061 L789,1060 L789,1056 L788,1055 L788,1054 L787,1053 L787,1052 L786,1051 L785,1051 L784,1050 L783,1050 L782,1049 L781,1049 L779,1047 L780,1046 L780,1045 L783,1042 L783,1041 L784,1040 L784,1039 L785,1038 L785,1037 L787,1035 L787,1034 L788,1033 L788,1032 L789,1031 L789,1029 L790,1028 L790,1027 L791,1026 L791,1025 L792,1024 L792,1022 L793,1021 L793,1019 L794,1018 L794,1016 L795,1015 L795,1014 L796,1013 L796,1008 L797,1007 L797,1005 L798,1004 L798,999 L799,998 L799,993 L800,992 L800,969 L799,968 L799,962 L798,961 L798,955 L797,954 L797,952 L796,951 L796,948 L795,947 L795,944 L794,943 L794,940 L793,939 L793,938 L792,937 L792,935 L791,934 L791,933 L792,932 L794,934 L794,935 L795,936 L795,938 L796,939 L796,940 L797,941 L797,942 L798,943 L798,944 L799,945 L799,947 L800,948 L800,949 L801,950 L801,951 L802,952 L802,954 L803,955 L803,957 L804,958 L804,959 L805,960 L805,962 L806,963 L806,966 L807,967 L807,969 L808,970 L808,973 L809,974 L809,976 L810,977 L810,982 L811,983 L811,986 L812,987 L812,995 L813,996 L813,1019 L812,1020 L812,1021 L813,1022 L812,1023 L812,1027 L811,1028 L811,1031 L810,1032 L810,1035 L809,1036 L809,1038 L808,1039 L808,1040 L807,1041 L807,1042 L805,1044 L805,1045 L804,1046 L806,1044 L806,1043 L808,1041 L808,1040 L809,1039 L809,1038 L810,1037 L810,1035 L811,1034 L811,1033 L813,1031 L813,1028 L814,1027 L814,1026 L816,1024 L819,1024 L820,1023 L823,1023 L824,1022 L825,1022 L827,1020 L828,1020 L829,1019 L830,1019 L834,1015 L835,1015 L841,1009 L841,1008 L845,1004 L845,1003 L847,1001 L847,1000 L849,998 L849,997 L850,996 L850,994 L851,993 L853,995 L853,998 L854,999 L853,1000 L854,1001 L854,1006 L855,1007 L855,1014 L856,1015 L856,1025 L855,1026 L855,1032 L854,1033 L854,1036 L853,1037 L854,1038 L853,1039 L853,1040 L852,1041 L852,1042 L851,1043 L851,1045 L850,1046 L850,1047 L849,1048 L849,1049 L847,1051 L847,1052 L844,1055 L844,1056 L839,1061 L838,1061 L837,1062 L838,1061 L839,1061 L841,1059 L842,1059 L844,1057 L845,1057 L851,1051 L851,1050 L854,1047 L854,1046 L857,1043 L857,1041 L859,1039 L859,1038 L860,1037 L860,1035 L864,1031 L864,1030 L865,1029 L865,1028 L867,1026 L867,1025 L868,1024 L868,1023 L870,1021 L870,1020 L871,1019 L871,1018 L872,1017 L872,1016 L873,1015 L873,1014 L874,1013 L874,1011 L875,1010 L875,1009 L876,1008 L876,1007 L877,1006 L877,1005 L878,1004 L878,1001 L879,1000 L879,998 L880,997 L880,995 L881,994 L881,992 L882,991 L882,988 L883,987 L883,984 L884,983 L884,981 L885,980 L885,974 L886,973 L886,971 L887,970 L887,969 L886,968 L887,967 L887,955 L888,954 L887,953 L887,952 L888,951 L887,950 L888,949 L887,948 L887,935 L886,934 L886,927 L885,926 L885,921 L884,920 L884,917 L883,916 L883,913 L882,912 L882,910 L881,909 L881,906 L880,905 L880,903 L879,902 L879,900 L878,899 L878,895 L876,893 L876,889 L875,888 L875,887 L874,886 L874,884 L873,883 L873,882 L872,881 L872,879 L871,878 L871,877 L870,876 L870,873 L869,872 L869,871 L868,870 L868,869 L867,868 L867,867 L866,866 L866,864 L867,863 L868,864 L868,865 L869,866 L869,867 L871,869 L871,870 L872,871 L872,872 L873,873 L873,874 L875,876 L875,877 L877,879 L877,880 L878,881 L878,882 L880,884 L880,885 L881,886 L881,887 L882,888 L882,889 L884,891 L884,892 L885,893 L885,894 L886,895 L886,897 L887,898 L887,899 L888,900 L888,902 L889,903 L889,904 L890,905 L890,908 L891,909 L891,910 L892,911 L892,914 L893,915 L893,917 L894,918 L894,921 L895,922 L895,924 L896,925 L896,928 L897,929 L897,932 L898,933 L898,936 L899,937 L899,941 L900,942 L900,945 L901,946 L901,951 L902,952 L902,957 L903,958 L903,982 L902,983 L902,987 L901,988 L901,992 L900,993 L900,995 L899,996 L899,999 L898,1000 L898,1002 L897,1003 L897,1005 L895,1007 L895,1008 L894,1009 L894,1010 L892,1012 L892,1013 L891,1014 L891,1015 L884,1022 L883,1022 L882,1023 L881,1023 L880,1024 L879,1024 L878,1025 L877,1025 L876,1026 L877,1026 L878,1025 L880,1025 L881,1024 L882,1024 L883,1023 L884,1023 L892,1015 L892,1014 L893,1013 L893,1012 L896,1009 L897,1009 L897,1008 L900,1005 L900,1004 L902,1002 L902,1001 L903,1000 L903,999 L904,998 L904,997 L905,996 L905,995 L906,994 L906,993 L907,992 L907,990 L908,989 L908,987 L909,986 L909,982 L910,981 L910,978 L911,977 L911,971 L912,970 L911,969 L912,968 L912,955 L913,954 L912,953 L913,952 L913,946 L912,945 L913,944 L913,943 L912,942 L913,941 L913,940 L912,939 L912,935 L911,934 L912,933 L912,932 L911,931 L911,926 L910,925 L910,921 L909,920 L909,915 L908,914 L908,911 L907,910 L907,908 L906,907 L906,904 L905,903 L905,899 L906,898 L906,896 L907,895 L907,894 L908,893 L908,891 L909,890 L909,887 L910,886 L910,883 L911,882 L910,881 L911,880 L911,872 L912,871 L912,870 L911,869 L912,868 L912,866 L911,865 L911,856 L910,855 L910,853 L909,852 L909,849 L908,848 L908,845 L907,844 L907,841 L906,840 L906,838 L904,836 L904,833 L903,832 L903,831 L902,830 L902,829 L901,828 L901,827 L900,826 L900,825 L899,824 L899,823 L898,822 L898,821 L896,819 L896,818 L895,817 L895,816 L894,815 L894,814 L893,813 L893,812 L891,810 L891,809 L889,807 L889,806 L886,803 L886,802 L885,801 L885,800 L884,799 L884,798 L881,795 L881,794 L877,790 L877,789 L876,789 L874,787 L874,786 L875,785 L877,787 L878,787 L880,789 L881,789 L883,791 L884,791 L888,795 L889,795 L892,798 L893,798 L899,804 L900,804 L909,813 L910,813 L914,817 L914,818 L921,825 L921,826 L925,830 L925,831 L927,833 L927,834 L930,837 L930,838 L933,841 L933,842 L936,845 L936,846 L938,848 L938,849 L941,852 L941,853 L942,854 L942,855 L944,857 L944,858 L945,859 L945,860 L946,861 L946,862 L948,864 L948,865 L950,867 L950,868 L951,869 L951,870 L952,871 L952,872 L953,873 L953,875 L954,876 L954,877 L955,878 L955,880 L956,881 L956,882 L957,883 L957,885 L958,886 L958,888 L959,889 L959,892 L960,893 L960,895 L961,896 L961,898 L962,899 L962,902 L963,903 L963,906 L964,907 L964,916 L965,917 L965,922 L964,923 L964,932 L963,933 L963,935 L962,936 L962,939 L961,940 L961,941 L960,942 L960,944 L959,945 L959,946 L958,947 L958,948 L957,949 L957,950 L956,951 L956,952 L954,954 L954,955 L945,964 L944,964 L942,966 L941,966 L939,968 L938,968 L937,969 L936,969 L935,970 L933,970 L932,971 L930,971 L929,972 L924,972 L923,973 L919,973 L927,973 L928,972 L931,972 L932,971 L934,971 L935,970 L937,970 L938,969 L939,969 L940,968 L941,968 L942,967 L943,967 L946,964 L947,964 L949,962 L950,962 L953,959 L954,959 L956,957 L956,956 L959,953 L959,952 L961,950 L961,949 L962,948 L962,947 L963,946 L963,945 L964,944 L964,943 L965,942 L965,939 L966,938 L966,935 L967,934 L967,930 L968,929 L968,923 L969,922 L969,899 L968,898 L968,893 L967,892 L967,887 L966,886 L966,883 L965,882 L965,879 L964,878 L964,876 L963,875 L963,872 L962,871 L962,870 L961,869 L961,867 L960,866 L960,864 L959,863 L959,862 L958,861 L958,859 L957,858 L957,856 L955,854 L955,852 L954,851 L954,850 L952,848 L952,847 L951,846 L951,845 L950,844 L950,843 L949,842 L949,841 L947,839 L947,838 L945,836 L945,835 L943,833 L943,832 L942,831 L942,830 L939,827 L939,826 L935,822 L935,821 L931,817 L931,816 L929,814 L929,813 L916,800 L916,799 L915,799 L914,798 L914,797 L913,797 L906,790 L905,790 L901,786 L900,786 L898,784 L897,784 L894,781 L893,781 L889,777 L888,777 L887,776 L886,776 L883,773 L882,773 L879,770 L878,770 L877,769 L876,769 L873,766 L872,766 L870,764 L869,764 L867,762 L866,762 L863,759 L862,759 L860,757 L859,757 L857,755 L856,755 L854,753 L853,753 L851,751 L850,751 L848,749 L846,749 L844,747 L843,747 L841,745 L840,745 L838,743 L837,743 L836,742 L835,742 L832,739 L832,738 L830,736 L830,735 L828,733 L828,732 L827,731 L827,730 L825,728 L825,727 L823,725 L823,724 L821,722 L821,721 L819,719 L819,718 L817,716 L817,715 L815,713 L815,712 L813,710 L813,709 L811,707 L811,706 L809,704 L809,703 L806,700 L806,699 L804,697 L804,696 L801,693 L801,692 L797,688 L797,687 L795,685 L795,684 L790,679 L790,678 L785,673 L785,672 L780,667 L780,666 L756,642 L756,641 L754,639 L753,639 L752,638 L752,637 L747,632 L746,632 L745,631 L745,630 L744,629 L743,629 L742,628 L742,627 L735,620 L734,620 L733,619 L733,618 L732,617 L731,617 L730,616 L730,615 L729,615 L728,614 L728,613 L727,613 L684,570 L684,569 L682,567 L681,567 L680,566 L680,565 L660,545 L660,544 L659,544 L658,543 L658,542 L652,536 L652,535 L651,535 L650,534 L650,533 L647,530 L647,529 L643,525 L643,524 L639,520 L639,519 L634,514 L634,513 L632,511 L632,510 L628,506 L628,505 L626,503 L626,502 L624,500 L624,499 L621,496 L621,495 L620,494 L620,493 L617,490 L617,489 L615,487 L615,486 L613,484 L613,483 L612,482 L612,481 L610,479 L610,478 L608,476 L608,475 L607,474 L607,473 L606,472 L606,471 L605,470 L605,469 L604,468 L604,467 L603,466 L603,465 L602,464 L602,463 L601,462 L601,461 L602,460 L604,460 L605,461 L605,462 L607,464 L607,465 L609,467 L609,468 L610,469 L610,470 L612,472 L612,473 L614,475 L614,476 L616,478 L616,479 L618,481 L618,482 L620,484 L620,485 L623,488 L623,489 L625,491 L625,492 L628,495 L628,496 L631,499 L631,500 L635,504 L635,505 L639,509 L639,510 L644,515 L644,516 L650,522 L650,523 L656,529 L656,530 L666,540 L666,541 L680,555 L681,555 L693,567 L694,567 L703,576 L704,576 L712,584 L713,584 L719,590 L720,590 L727,597 L728,597 L732,601 L733,601 L736,604 L737,604 L742,609 L743,609 L747,613 L748,613 L752,617 L753,617 L757,621 L758,621 L762,625 L763,625 L767,629 L768,629 L772,633 L773,633 L778,638 L779,638 L782,641 L783,641 L786,644 L787,644 L791,648 L792,648 L797,653 L798,653 L803,658 L804,658 L808,662 L809,662 L813,666 L814,666 L818,670 L819,670 L823,674 L824,674 L828,678 L829,678 L832,681 L833,681 L836,684 L837,684 L840,687 L841,687 L845,691 L846,691 L849,694 L850,694 L854,698 L855,698 L858,701 L859,701 L864,706 L865,706 L868,709 L869,709 L873,713 L874,713 L877,716 L878,716 L880,718 L881,718 L885,722 L886,722 L891,727 L892,727 L895,730 L896,730 L899,733 L900,733 L903,736 L904,736 L908,740 L909,740 L911,742 L912,742 L916,746 L917,746 L920,749 L921,749 L924,752 L925,752 L928,755 L929,755 L933,759 L934,759 L938,763 L939,763 L944,768 L945,768 L947,770 L948,770 L959,781 L960,781 L968,789 L969,789 L1000,820 L1000,821 L1001,821 L1002,822 L1002,823 L1007,828 L1007,829 L1011,833 L1011,834 L1015,838 L1015,839 L1019,843 L1019,844 L1021,846 L1021,847 L1024,850 L1024,851 L1026,853 L1026,854 L1028,856 L1028,857 L1029,858 L1029,859 L1031,861 L1031,862 L1033,864 L1033,865 L1034,866 L1034,867 L1035,868 L1035,869 L1036,870 L1036,871 L1038,873 L1038,874 L1039,875 L1039,876 L1040,877 L1040,878 L1041,879 L1041,881 L1042,882 L1042,883 L1043,884 L1043,886 L1044,887 L1044,891 L1045,892 L1045,895 L1046,896 L1046,910 L1045,911 L1045,916 L1044,917 L1044,921 L1043,922 L1043,924 L1042,925 L1042,927 L1041,928 L1041,929 L1040,930 L1040,931 L1039,932 L1039,933 L1038,934 L1038,935 L1037,936 L1037,937 L1035,939 L1035,940 L1027,948 L1026,948 L1024,950 L1023,950 L1021,952 L1019,952 L1018,953 L1017,953 L1016,954 L1017,954 L1018,953 L1019,953 L1020,952 L1022,952 L1024,950 L1025,950 L1026,949 L1027,949 L1028,948 L1029,948 L1031,946 L1032,946 L1034,944 L1035,944 L1038,941 L1039,941 L1040,940 L1041,940 L1041,939 L1042,938 L1043,938 L1044,937 L1044,936 L1051,929 L1051,928 L1052,927 L1052,926 L1054,924 L1054,923 L1056,921 L1056,919 L1058,917 L1058,915 L1059,914 L1059,912 L1060,911 L1060,905 L1061,904 L1061,898 L1060,897 L1061,896 L1061,893 L1060,892 L1060,887 L1059,886 L1059,882 L1058,881 L1058,878 L1057,877 L1057,876 L1056,875 L1056,872 L1055,871 L1055,870 L1054,869 L1054,868 L1053,867 L1053,866 L1052,865 L1052,863 L1051,862 L1051,861 L1050,860 L1050,859 L1049,858 L1049,857 L1047,855 L1047,854 L1045,852 L1045,851 L1043,849 L1043,848 L1042,847 L1042,846 L1039,843 L1039,842 L1038,841 L1038,840 L1032,834 L1032,833 L1028,829 L1028,828 L1027,827 L1026,827 L1025,826 L1025,825 L1013,813 L1013,812 L1012,812 L997,797 L996,797 L995,796 L995,795 L994,795 L989,790 L988,790 L983,785 L982,785 L981,784 L981,783 L980,782 L979,782 L978,781 L978,780 L977,780 L975,778 L974,778 L969,773 L968,773 L965,770 L964,770 L963,769 L963,768 L962,768 L958,764 L957,764 L953,760 L952,760 L950,758 L949,758 L944,753 L943,753 L941,751 L940,751 L937,748 L936,748 L933,745 L932,745 L928,741 L927,741 L926,740 L925,740 L922,737 L921,737 L918,734 L917,734 L915,732 L914,732 L912,730 L911,730 L907,726 L906,726 L904,724 L903,724 L901,722 L900,722 L898,720 L897,720 L894,717 L893,717 L890,714 L889,714 L887,712 L886,712 L883,709 L882,709 L880,707 L879,707 L876,704 L875,704 L872,701 L871,701 L868,698 L867,698 L866,697 L865,697 L862,694 L861,694 L858,691 L857,691 L854,688 L853,688 L851,686 L850,686 L846,682 L845,682 L843,680 L842,680 L840,678 L839,678 L835,674 L834,674 L831,671 L830,671 L826,667 L825,667 L822,664 L821,664 L817,660 L816,660 L814,658 L813,658 L811,656 L810,656 L806,652 L805,652 L803,650 L802,650 L799,647 L798,647 L797,646 L797,645 L796,645 L793,642 L792,642 L789,639 L788,639 L785,636 L784,636 L779,631 L778,631 L774,627 L773,627 L769,623 L768,623 L764,619 L763,619 L756,612 L755,612 L753,610 L752,610 L751,609 L751,608 L750,608 L746,604 L745,604 L744,603 L744,602 L743,601 L742,601 L739,598 L738,598 L730,590 L729,590 L720,581 L719,581 L711,573 L710,573 L709,572 L709,571 L707,569 L706,569 L695,558 L694,558 L690,554 L690,553 L689,553 L681,545 L681,544 L680,544 L677,541 L677,540 L674,537 L673,537 L672,536 L672,535 L669,532 L669,531 L657,519 L657,518 L654,515 L654,514 L651,511 L651,510 L648,507 L648,506 L646,504 L646,503 L643,500 L643,499 L641,497 L641,496 L639,494 L639,493 L636,490 L636,489 L634,487 L634,486 L632,484 L632,483 L630,481 L630,480 L628,478 L628,477 L627,476 L627,475 L626,474 L626,473 L624,471 L624,470 L623,469 L623,468 L622,467 L622,466 L621,465 L621,464 L620,463 L620,462 L619,461 L619,460 L618,459 L618,458 L621,455 L623,455 L624,456 L625,456 L626,457 L628,457 L629,458 L630,458 L631,459 L633,459 L634,460 L636,460 L637,461 L641,461 L642,462 L647,462 L648,463 L652,463 L653,464 L659,464 L660,465 L665,465 L660,465 L659,464 L657,464 L656,463 L651,463 L650,462 L648,462 L647,461 L645,461 L644,460 L642,460 L641,459 L640,459 L639,458 L638,458 L637,457 L636,457 L635,456 L634,456 L632,454 L631,454 L630,453 L629,453 L627,451 L626,451 L624,449 L623,449 L620,446 L619,446 L614,441 L613,441 L608,436 L608,435 L607,434 L607,432 L606,431 L606,429 L605,428 L605,426 L604,425 L604,422 L603,421 L603,419 L602,418 L602,414 L601,413 L601,412 L602,411 L604,413 L605,413 L606,414 L607,414 L608,415 L609,415 L610,416 L611,416 L612,417 L614,417 L615,418 L617,418 L618,419 L620,419 L621,420 L623,420 L624,421 L628,421 L629,422 L630,422 L631,421 L632,422 L636,422 L638,424 L639,424 L641,426 L642,426 L643,427 L644,427 L646,429 L647,429 L648,430 L649,430 L650,431 L651,431 L652,432 L653,432 L654,433 L656,433 L657,434 L659,434 L660,435 L662,435 L663,436 L668,436 L669,437 L668,436 L665,436 L664,435 L662,435 L661,434 L660,434 L659,433 L658,433 L657,432 L656,432 L652,428 L651,428 L648,425 L647,425 L646,424 L646,423 L645,423 L632,410 L632,409 L631,409 L630,408 L630,407 L627,404 L627,403 L624,400 L624,399 L622,397 L622,396 L621,395 L621,394 L619,392 L619,391 L618,390 L618,389 L616,387 L616,386 L615,385 L615,384 L614,383 L614,382 L612,380 L612,379 L611,378 L611,377 L612,376 L614,378 L614,379 L618,383 L618,384 L635,401 L636,401 L640,405 L641,405 L642,406 L643,406 L647,410 L648,410 L649,411 L650,411 L652,413 L653,413 L655,415 L656,415 L658,417 L659,417 L660,418 L661,418 L662,419 L663,419 L664,420 L665,420 L666,421 L667,421 L668,422 L669,422 L670,423 L672,423 L673,424 L674,424 L675,425 L677,425 L678,426 L679,426 L680,427 L682,427 L683,428 L685,428 L686,429 L689,429 L690,430 L691,430 L692,431 L693,431 L694,432 L698,432 L699,433 L703,433 L704,434 L708,434 L709,433 L711,433 L711,432 L710,433 L700,433 L699,432 L696,432 L695,431 L693,431 L692,430 L691,430 L690,429 L689,429 L688,428 L686,428 L684,426 L683,426 L681,424 L680,424 L679,423 L678,423 L676,421 L675,421 L673,419 L672,419 L670,417 L669,417 L666,414 L665,414 L657,406 L656,406 L651,401 L650,401 L649,400 L649,399 L648,399 L636,387 L636,386 L629,379 L629,378 L625,374 L625,373 L622,370 L622,369 L620,367 L620,366 L617,363 L617,362 L616,361 L616,360 L615,359 L615,358 L613,356 L613,355 L612,354 L612,353 L610,351 L610,350 L611,349 L622,360 L623,360 L628,365 L629,365 L632,368 L633,368 L635,370 L636,370 L638,372 L639,372 L641,374 L642,374 L643,375 L644,375 L645,376 L646,376 L647,377 L649,377 L650,378 L651,378 L652,379 L657,379 L658,380 L663,380 L664,381 L669,381 L670,380 L671,380 L672,381 L673,381 L674,380 L677,380 L671,380 L670,379 L666,379 L665,378 L663,378 L662,377 L660,377 L659,376 L658,376 L657,375 L656,375 L655,374 L654,374 L652,372 L651,372 L649,370 L648,370 L643,365 L642,365 L631,354 L631,353 L630,353 L629,352 L629,351 L626,348 L626,347 L623,344 L623,343 L622,342 L622,341 L620,339 L620,338 L619,337 L619,336 L617,334 L617,333 L616,332 L616,331 L615,330 L615,329 L614,328 L614,327 L613,326 L613,325 L612,324 L612,323 L611,322 L611,321 L610,320 L610,319 L609,318 L609,317 L608,316 L608,315 L607,314 L607,312 L606,311 L606,310 L605,309 L605,307 L604,306 L604,305 L603,304 L603,302 L602,301 L602,300 L601,299 L601,296 L600,295 L600,293 L599,292 L599,290 L600,289 L601,290 L601,291 L602,292 L602,294 L603,295 L603,297 L604,298 L604,299 L605,300 L605,302 L606,303 L606,304 L607,305 L607,306 L608,307 L608,309 L609,310 L609,311 L610,312 L610,313 L611,314 L611,315 L612,316 L612,317 L613,318 L613,319 L614,320 L614,321 L616,323 L616,324 L617,325 L617,326 L619,328 L619,329 L620,330 L620,331 L622,333 L622,334 L625,337 L625,338 L635,348 L636,348 L639,351 L640,351 L641,352 L642,352 L643,353 L644,353 L645,354 L646,354 L647,355 L649,355 L650,356 L654,356 L655,357 L666,357 L667,356 L670,356 L671,355 L673,355 L674,354 L675,354 L676,353 L677,353 L678,352 L677,353 L675,353 L674,354 L670,354 L669,355 L657,355 L656,354 L652,354 L651,353 L650,353 L649,352 L647,352 L646,351 L645,351 L644,350 L643,350 L641,348 L640,348 L638,346 L637,346 L626,335 L626,334 L623,331 L623,330 L621,328 L621,327 L619,325 L619,324 L617,322 L617,321 L616,320 L616,319 L614,317 L614,316 L613,315 L613,314 L612,313 L612,312 L611,311 L611,310 L610,309 L610,308 L609,307 L609,306 L608,305 L608,304 L607,303 L607,302 L608,301 L610,303 L610,304 L626,320 L627,320 L629,322 L630,322 L631,323 L632,323 L634,325 L635,325 L636,326 L637,326 L638,327 L639,327 L640,328 L643,328 L644,329 L647,329 L648,330 L657,330 L658,329 L656,329 L655,330 L649,330 L648,329 L647,329 L646,328 L644,328 L642,326 L641,326 L640,325 L639,325 L637,323 L636,323 L629,316 L629,315 L625,311 L625,310 L621,306 L621,305 L620,304 L620,303 L618,301 L618,300 L617,299 L617,298 L615,296 L615,295 L614,294 L614,293 L613,292 L613,291 L612,290 L612,289 L611,288 L611,287 L610,286 L610,284 L609,283 L609,282 L608,281 L608,278 L607,277 L607,276 L606,275 L606,270 L605,269 L605,263 L604,262 L605,261 L604,260 L604,233 L603,232 L603,225 L602,224 L602,218 L601,217 L601,212 L600,211 L600,208 L599,207 L600,206 L599,205 L599,204 L598,203 L598,200 L597,199 L597,196 L596,195 L596,193 L595,192 L595,188 L594,187 L594,186 L593,185 L593,183 L592,182 L592,180 L591,179 L591,177 L590,176 L590,174 L589,173 L589,171 L588,170 L588,169 L587,168 L587,166 L586,165 L586,164 L585,163 L585,162 L584,161 L584,159 L583,158 L583,157 L582,156 L582,154 L581,153 L581,152 L580,151 L580,150 L578,148 L578,146 L577,145 L577,144 L576,143 L576,142 L574,140 L574,139 L573,138 L573,137 L572,136 L572,135 L570,133 L570,132 L568,130 L568,129 L567,128 L567,127 L565,125 L565,124 L563,122 L563,121 L561,119 L561,118 L560,118 L559,117 L559,116 L558,115 L558,114 L555,111 L555,110 L553,108 L553,107 L548,102 L548,101 L545,98 L545,97 L544,97 L543,96 L543,95 L535,87 L535,86 L534,85 L533,85 L530,82 L530,81 L529,80 L528,80 L519,71 L518,71 L517,70 L517,69 L516,69 L513,66 L512,66 L507,61 L506,61 L504,59 L503,59 L499,55 L498,55 L497,54 L496,54 L494,52 L493,52 L491,50 L490,50 L489,49 L488,49 L486,47 L485,47 L483,45 L481,45 L480,44 L479,44 L477,42 L476,42 L475,41 L474,41 L473,40 L472,40 L471,39 L470,39 L469,38 L468,38 L467,37 L466,37 L465,36 L463,36 L462,35 L461,35 L460,34 L458,34 L457,33 L456,33 L455,32 L453,32 L452,31 L451,31 L450,30 L449,30 L440,21 L439,21 L436,18 L435,18 L431,14 L430,14 L427,11 L426,11 L425,10 L424,10 L423,9 L422,9 L421,8 L420,8 L418,6 L416,6 L415,5 L414,5 L413,4 L411,4 L410,3 L408,3 L407,2 L403,2 L402,1 Z" fill="#4287f5" />
</svg>