<?xml version='1.0' encoding='utf-8'?>
<svg xmlns="http://www.w3.org/2000/svg" height="400" width="400" fill="#4287f5">
	<path d="M180,15 L179,16 L178,16 L175,19 L174,19 L164,29 L163,29 L161,31 L160,31 L159,32 L158,32 L157,33 L154,33 L153,34 L150,34 L149,35 L146,35 L145,36 L144,36 L143,37 L142,37 L141,38 L140,38 L139,39 L138,39 L135,42 L134,42 L132,44 L131,44 L129,46 L128,46 L124,50 L123,50 L120,53 L119,53 L114,58 L113,58 L105,66 L105,67 L101,71 L101,72 L99,74 L99,75 L98,76 L98,77 L96,79 L96,80 L95,81 L95,82 L94,83 L94,84 L93,85 L93,86 L92,87 L92,88 L91,89 L91,90 L90,91 L90,92 L89,93 L89,95 L88,96 L88,97 L87,98 L87,99 L86,100 L86,102 L85,103 L85,106 L84,107 L84,110 L83,111 L83,115 L82,116 L82,121 L81,122 L81,128 L80,129 L80,136 L79,137 L79,171 L78,172 L78,174 L77,175 L77,176 L76,177 L76,179 L75,180 L75,182 L74,183 L74,184 L73,185 L73,186 L71,188 L71,189 L67,193 L66,193 L64,195 L63,195 L62,196 L59,196 L58,197 L47,197 L46,198 L48,200 L49,200 L52,203 L53,203 L55,205 L56,205 L58,207 L60,207 L61,208 L63,208 L64,209 L68,209 L69,210 L71,210 L72,211 L72,212 L71,213 L70,213 L69,214 L68,214 L67,215 L66,215 L65,216 L64,216 L63,217 L62,217 L60,219 L59,219 L58,220 L57,220 L57,221 L58,222 L59,222 L60,223 L62,223 L63,224 L67,224 L68,225 L73,225 L74,226 L81,226 L82,227 L84,227 L86,229 L86,230 L87,231 L87,236 L88,237 L88,249 L89,250 L89,252 L90,253 L90,255 L91,256 L91,257 L92,258 L92,260 L93,261 L93,265 L94,266 L94,270 L95,271 L95,276 L96,277 L96,281 L97,282 L97,285 L98,286 L98,290 L99,291 L99,296 L100,297 L100,300 L101,301 L101,304 L102,305 L102,307 L103,308 L103,310 L104,311 L104,312 L105,313 L105,315 L106,316 L106,317 L107,318 L107,319 L108,320 L108,321 L111,324 L111,325 L115,329 L116,329 L119,332 L120,332 L122,334 L123,334 L124,335 L126,335 L127,336 L129,336 L130,337 L136,337 L137,338 L137,363 L138,364 L138,367 L139,368 L139,369 L140,370 L140,371 L142,373 L142,374 L147,379 L148,379 L150,381 L151,381 L152,382 L153,382 L154,383 L156,383 L157,384 L167,384 L168,383 L170,383 L171,382 L173,382 L174,381 L175,381 L176,380 L177,380 L179,378 L180,378 L185,373 L185,372 L189,368 L189,367 L190,366 L191,366 L193,364 L204,364 L205,365 L206,365 L209,368 L210,368 L212,370 L212,371 L215,374 L216,374 L221,379 L222,379 L224,381 L225,381 L226,382 L227,382 L228,383 L230,383 L231,384 L244,384 L245,383 L248,383 L249,382 L250,382 L252,380 L253,380 L257,376 L257,375 L258,374 L258,373 L259,372 L259,369 L260,368 L260,343 L259,342 L259,331 L260,330 L260,329 L261,328 L262,328 L263,327 L266,327 L267,328 L267,334 L266,335 L266,337 L267,338 L271,338 L272,337 L273,337 L274,336 L275,336 L283,328 L283,327 L286,324 L286,323 L288,321 L288,320 L289,319 L289,318 L291,316 L292,317 L292,330 L293,330 L294,329 L295,329 L296,328 L297,328 L299,326 L300,326 L309,317 L309,316 L313,312 L313,311 L314,310 L314,309 L315,308 L315,307 L317,305 L317,303 L318,302 L318,301 L319,300 L319,297 L320,296 L320,292 L321,291 L321,275 L320,274 L320,262 L319,261 L319,254 L318,253 L318,248 L317,247 L317,241 L318,240 L318,234 L319,233 L319,232 L320,231 L325,231 L326,232 L341,232 L342,231 L342,230 L340,228 L340,227 L333,220 L333,219 L332,218 L333,217 L339,217 L340,216 L344,216 L345,215 L347,215 L348,214 L349,214 L350,213 L351,213 L352,212 L352,211 L350,209 L349,209 L348,208 L347,208 L345,206 L344,206 L341,203 L340,203 L339,202 L339,201 L338,201 L337,200 L337,199 L334,196 L334,195 L333,194 L333,192 L332,191 L332,189 L331,188 L331,185 L330,184 L330,177 L329,176 L329,152 L328,151 L328,142 L327,141 L327,136 L326,135 L326,130 L325,129 L325,124 L324,123 L324,118 L323,117 L323,113 L322,112 L322,110 L321,109 L321,106 L320,105 L320,103 L319,102 L319,100 L318,99 L318,98 L317,97 L317,95 L316,94 L316,93 L315,92 L315,91 L314,90 L314,89 L313,88 L313,87 L312,86 L312,85 L311,84 L311,83 L310,82 L310,81 L308,79 L308,78 L307,77 L307,76 L305,74 L305,73 L303,71 L303,70 L289,56 L288,56 L281,49 L280,49 L276,45 L275,45 L273,43 L272,43 L270,41 L269,41 L268,40 L267,40 L266,39 L265,39 L263,37 L262,37 L261,36 L259,36 L258,35 L257,35 L256,34 L255,34 L254,33 L253,33 L250,30 L249,30 L241,22 L240,22 L237,19 L236,19 L234,17 L233,17 L232,16 L227,16 L226,17 L224,17 L222,19 L221,19 L219,21 L218,21 L214,25 L213,25 L210,28 L208,28 L207,29 L206,28 L205,28 L202,25 L201,25 L197,21 L196,21 L194,19 L193,19 L191,17 L190,17 L189,16 L188,16 L187,15 Z"/>
</svg>